# xmcd
#
# Track frame offsets:
#	150
#	14924
#	38423
#	60713
#	85473
#	102739
#	113843
#	138556
#	164281
#	174441
#	185205
#	202288
#	212444
#	234309
#	250089
#	266471
#	286604
#	311101
#
# Disc length: 4394 seconds
#
# Revision: 2
# Processed by: cddbd v1.5.1PL2 Copyright (c) Steve Scherf et al.
# Submitted via: audiograbber 1.83.01
#
DISCID=0a112812
DTITLE=Akvarium - Chrestomatia_1.3
DYEAR=1900
DGENRE=Rock
TTITLE0=Beregi svoi hoi
TTITLE1=Aristokrat
TTITLE2=Kapitan Afrika
TTITLE3=Vana Hoia
TTITLE4=Vremya Luny
TTITLE5=Malchik Efgraf
TTITLE6=Ewe odin upavshii vniz
TTITLE7=Zheleznodorozhnaya voda
TTITLE8=Chai
TTITLE9=Pesnya dlya novogo byta
TTITLE10=Pochemu ne padaet nebo
TTITLE11=Ukravshii dozhd'
TTITLE12=Delo mastera Bo
TTITLE13=Ivan-chai
TTITLE14=Molodye l'vy
TTITLE15=The Wind
TTITLE16=Lyotchik
TTITLE17=Kak nam vernut'sya domoi
EXTD=
EXTT0=
EXTT1=
EXTT2=
EXTT3=
EXTT4=
EXTT5=
EXTT6=
EXTT7=
EXTT8=
EXTT9=
EXTT10=
EXTT11=
EXTT12=
EXTT13=
EXTT14=
EXTT15=
EXTT16=
EXTT17=
PLAYORDER=
